<svg xmlns="http://www.w3.org/2000/svg" viewBox="0 0 32 40" x="0px" y="0px"><g data-name="6b"><path d="M17.57,16C21.37,12.87,25,9.43,25,3a1,1,0,0,0-1-1H8a1,1,0,0,0-1,1c0,6.4,3.62,9.84,7.4,12.94C10.62,19.11,7,22.54,7,29A1,1,0,0,0,8,30H24a1,1,0,0,0,1-.85C25.14,22.71,21.39,19.1,17.57,16ZM23,4c0,.22,0,.44-.08.65-3.45.16-3.65,2.66-6.89,2.72S12.56,4.8,9.1,4.65c0-.21,0-.43-.07-.65ZM20.45,24.34a5.47,5.47,0,0,0-8.9,0,4.39,4.39,0,0,1-2.19,1.57c1-3.81,3.67-6.23,6.63-8.63,3,2.41,5.7,4.82,6.65,8.63A4.39,4.39,0,0,1,20.45,24.34Z"/></g><text x="0" y="47" fill="#000000" font-size="5px" font-weight="bold" font-family="'Helvetica Neue', Helvetica, Arial-Unicode, Arial, Sans-serif">Created by Zky Icon</text><text x="0" y="52" fill="#000000" font-size="5px" font-weight="bold" font-family="'Helvetica Neue', Helvetica, Arial-Unicode, Arial, Sans-serif">from the Noun Project</text>
  <style>
    path {fill: black;}

    @media (prefers-color-scheme: dark) {
      path {fill: white;}
    }
  </style>
</svg>
